<svg xmlns="http://www.w3.org/2000/svg" width="768" height="768"><path d="M288 64.001H128c-35.296 0-64 28.672-64 64v160c0 35.328 28.704 64 64 64h160c35.296 0 64-28.672 64-64v-160c0-35.328-28.704-64-64-64zm0 224H128v-160h160v160zm352-224H480c-35.328 0-64 28.672-64 64v160c0 35.328 28.672 64 64 64h160c35.328 0 64-28.672 64-64v-160c0-35.328-28.672-64-64-64zm0 224H480v-160h160v160zm-352 128H128c-35.296 0-64 28.672-64 64v160c0 35.328 28.704 64 64 64h160c35.296 0 64-28.672 64-64v-160c0-35.328-28.704-64-64-64zM288 640H128V480h160v160zm352-223.999H480c-35.328 0-64 28.672-64 64v160c0 35.328 28.672 64 64 64h160c35.328 0 64-28.672 64-64v-160c0-35.328-28.672-64-64-64zM640 640H480V480h160v160z"/></svg>